<svg width="1380" height="425" viewBox="0 0 1380 425" fill="none" xmlns="http://www.w3.org/2000/svg">
<g filter="url(#filter0_d_16_7)">
<rect x="4" width="405" height="407" rx="96" fill="#37A7CC"/>
<rect x="4" width="405" height="407" rx="96" fill="url(#paint0_linear_16_7)"/>
<path d="M299.664 195.611V204.254C299.664 220.562 297.369 235.211 292.779 248.199C288.287 261.09 281.891 272.125 273.59 281.305C265.289 290.387 255.475 297.369 244.146 302.252C232.818 307.037 220.318 309.43 206.646 309.43C192.877 309.43 180.279 307.037 168.854 302.252C157.525 297.369 147.662 290.387 139.264 281.305C130.963 272.125 124.518 261.09 119.928 248.199C115.436 235.211 113.189 220.562 113.189 204.254V195.611C113.189 179.303 115.436 164.654 119.928 151.666C124.518 138.678 130.914 127.643 139.117 118.561C147.418 109.381 157.232 102.398 168.561 97.6133C179.986 92.7305 192.584 90.2891 206.354 90.2891C220.025 90.2891 232.525 92.7305 243.854 97.6133C255.279 102.398 265.143 109.381 273.443 118.561C281.744 127.643 288.189 138.678 292.779 151.666C297.369 164.654 299.664 179.303 299.664 195.611ZM247.516 204.254V195.318C247.516 184.771 246.588 175.494 244.732 167.486C242.975 159.381 240.338 152.594 236.822 147.125C233.307 141.656 228.961 137.555 223.785 134.82C218.707 131.988 212.896 130.572 206.354 130.572C199.518 130.572 193.561 131.988 188.482 134.82C183.404 137.555 179.156 141.656 175.738 147.125C172.32 152.594 169.732 159.381 167.975 167.486C166.314 175.494 165.484 184.771 165.484 195.318V204.254C165.484 214.703 166.314 223.98 167.975 232.086C169.732 240.094 172.32 246.881 175.738 252.447C179.254 258.014 183.551 262.213 188.629 265.045C193.805 267.877 199.811 269.293 206.646 269.293C213.189 269.293 219 267.877 224.078 265.045C229.156 262.213 233.404 258.014 236.822 252.447C240.338 246.881 242.975 240.094 244.732 232.086C246.588 223.98 247.516 214.703 247.516 204.254Z" fill="white"/>
<path d="M538.051 194.476V213.697C538.051 221.818 537.049 228.938 535.045 235.055C533.094 241.119 530.299 246.208 526.66 250.321C523.074 254.382 518.724 257.44 513.608 259.497C508.546 261.554 502.93 262.582 496.76 262.582C490.59 262.582 484.947 261.554 479.832 259.497C474.77 257.44 470.393 254.382 466.701 250.321C463.062 246.208 460.241 241.119 458.237 235.055C456.233 228.938 455.231 221.818 455.231 213.697V194.476C455.231 186.144 456.207 178.866 458.158 172.644C460.109 166.368 462.931 161.147 466.622 156.981C470.313 152.763 474.69 149.599 479.753 147.489C484.815 145.327 490.432 144.246 496.602 144.246C502.771 144.246 508.388 145.327 513.45 147.489C518.513 149.599 522.89 152.763 526.581 156.981C530.272 161.147 533.094 166.368 535.045 172.644C537.049 178.866 538.051 186.144 538.051 194.476ZM515.032 213.697V194.317C515.032 188.833 514.637 184.166 513.846 180.316C513.055 176.414 511.868 173.224 510.286 170.745C508.704 168.267 506.779 166.447 504.512 165.287C502.244 164.127 499.607 163.547 496.602 163.547C493.596 163.547 490.933 164.127 488.612 165.287C486.345 166.447 484.42 168.267 482.838 170.745C481.309 173.224 480.148 176.414 479.357 180.316C478.619 184.166 478.25 188.833 478.25 194.317V213.697C478.25 218.971 478.646 223.479 479.437 227.224C480.228 230.968 481.414 234.026 482.996 236.399C484.578 238.772 486.503 240.539 488.771 241.699C491.091 242.807 493.754 243.36 496.76 243.36C499.713 243.36 502.323 242.807 504.591 241.699C506.911 240.539 508.836 238.772 510.365 236.399C511.895 234.026 513.055 230.968 513.846 227.224C514.637 223.479 515.032 218.971 515.032 213.697ZM633.131 200.487V247.948C631.496 249.688 629.097 251.719 625.933 254.039C622.821 256.307 618.734 258.311 613.672 260.051C608.662 261.738 602.545 262.582 595.32 262.582C588.939 262.582 583.139 261.58 577.918 259.576C572.75 257.572 568.294 254.54 564.55 250.479C560.858 246.366 558.037 241.251 556.086 235.134C554.135 228.964 553.159 221.66 553.159 213.223V193.605C553.159 185.273 554.082 178.022 555.928 171.853C557.826 165.63 560.568 160.462 564.154 156.349C567.74 152.235 572.012 149.177 576.969 147.173C581.979 145.169 587.621 144.167 593.896 144.167C602.545 144.167 609.638 145.617 615.175 148.518C620.765 151.418 624.983 155.716 627.831 161.411C630.731 167.106 632.472 174.094 633.052 182.373H610.666C610.297 177.521 609.479 173.725 608.214 170.982C607.001 168.24 605.287 166.289 603.072 165.129C600.857 163.916 597.983 163.31 594.45 163.31C591.392 163.31 588.729 163.863 586.461 164.971C584.193 166.025 582.295 167.766 580.766 170.191C579.236 172.617 578.103 175.729 577.364 179.525C576.626 183.322 576.257 187.963 576.257 193.447V213.223C576.257 218.654 576.679 223.295 577.522 227.145C578.366 230.994 579.605 234.132 581.24 236.558C582.928 238.983 585.037 240.75 587.568 241.857C590.152 242.912 593.185 243.439 596.665 243.439C599.46 243.439 601.701 243.149 603.389 242.569C605.076 241.989 606.421 241.383 607.423 240.75C608.478 240.064 609.348 239.537 610.033 239.168V217.969H593.501V200.487H633.131ZM713.656 192.498V211.641H666.433V192.498H713.656ZM672.998 145.828V261H649.821V145.828H672.998ZM730.426 145.828V261H707.486V145.828H730.426ZM815.381 241.857V261H765.31V241.857H815.381ZM772.508 145.828V261H749.331V145.828H772.508ZM808.657 192.498V211.087H765.31V192.498H808.657ZM815.223 145.828V165.05H765.31V145.828H815.223ZM909.433 145.828V261H887.047L850.897 188.938V261H828.907V145.828H850.977L887.442 218.681V145.828H909.433ZM994.15 241.857V261H944.079V241.857H994.15ZM951.277 145.828V261H928.101V145.828H951.277ZM987.427 192.498V211.087H944.079V192.498H987.427ZM993.992 145.828V165.05H944.079V145.828H993.992ZM1055.14 145.828V261H1032.12V145.828H1055.14ZM1083.77 145.828V165.05H1004.04V145.828H1083.77ZM1163.27 241.857V261H1113.2V241.857H1163.27ZM1120.4 145.828V261H1097.22V145.828H1120.4ZM1156.55 192.498V211.087H1113.2V192.498H1156.55ZM1163.11 145.828V165.05H1113.2V145.828H1163.11ZM1255.03 200.487V247.948C1253.39 249.688 1250.99 251.719 1247.83 254.039C1244.72 256.307 1240.63 258.311 1235.57 260.051C1230.56 261.738 1224.44 262.582 1217.22 262.582C1210.84 262.582 1205.04 261.58 1199.81 259.576C1194.65 257.572 1190.19 254.54 1186.45 250.479C1182.75 246.366 1179.93 241.251 1177.98 235.134C1176.03 228.964 1175.06 221.66 1175.06 213.223V193.605C1175.06 185.273 1175.98 178.022 1177.82 171.853C1179.72 165.63 1182.46 160.462 1186.05 156.349C1189.64 152.235 1193.91 149.177 1198.87 147.173C1203.88 145.169 1209.52 144.167 1215.79 144.167C1224.44 144.167 1231.53 145.617 1237.07 148.518C1242.66 151.418 1246.88 155.716 1249.73 161.411C1252.63 167.106 1254.37 174.094 1254.95 182.373H1232.56C1232.19 177.521 1231.38 173.725 1230.11 170.982C1228.9 168.24 1227.18 166.289 1224.97 165.129C1222.75 163.916 1219.88 163.31 1216.35 163.31C1213.29 163.31 1210.62 163.863 1208.36 164.971C1206.09 166.025 1204.19 167.766 1202.66 170.191C1201.13 172.617 1200 175.729 1199.26 179.525C1198.52 183.322 1198.15 187.963 1198.15 193.447V213.223C1198.15 218.654 1198.58 223.295 1199.42 227.145C1200.26 230.994 1201.5 234.132 1203.14 236.558C1204.82 238.983 1206.93 240.75 1209.46 241.857C1212.05 242.912 1215.08 243.439 1218.56 243.439C1221.36 243.439 1223.6 243.149 1225.29 242.569C1226.97 241.989 1228.32 241.383 1229.32 240.75C1230.37 240.064 1231.24 239.537 1231.93 239.168V217.969H1215.4V200.487H1255.03ZM1313.4 166.395L1288.65 261H1264.2L1300.19 145.828H1315.46L1313.4 166.395ZM1332.94 261L1308.03 166.395L1305.73 145.828H1321.24L1357.54 261H1332.94ZM1333.81 218.048V237.27H1281.84V218.048H1333.81Z" fill="black"/>
</g>
<defs>
<filter id="filter0_d_16_7" x="0" y="0" width="1394" height="429" filterUnits="userSpaceOnUse" color-interpolation-filters="sRGB">
<feFlood flood-opacity="0" result="BackgroundImageFix"/>
<feColorMatrix in="SourceAlpha" type="matrix" values="0 0 0 0 0 0 0 0 0 0 0 0 0 0 0 0 0 0 127 0" result="hardAlpha"/>
<feOffset dx="5" dy="9"/>
<feGaussianBlur stdDeviation="4.5"/>
<feComposite in2="hardAlpha" operator="out"/>
<feColorMatrix type="matrix" values="0 0 0 0 0 0 0 0 0 0 0 0 0 0 0 0 0 0 0.25 0"/>
<feBlend mode="normal" in2="BackgroundImageFix" result="effect1_dropShadow_16_7"/>
<feBlend mode="normal" in="SourceGraphic" in2="effect1_dropShadow_16_7" result="shape"/>
</filter>
<linearGradient id="paint0_linear_16_7" x1="206.5" y1="0" x2="206.5" y2="407" gradientUnits="userSpaceOnUse">
<stop stop-color="#F37086"/>
<stop offset="1" stop-color="#F37086" stop-opacity="0"/>
</linearGradient>
</defs>
</svg>
