<svg id="Layer_1" data-name="Layer 1" xmlns="http://www.w3.org/2000/svg" viewBox="0 0 121 121"><defs><style>.cls-1{fill:#4b5763;}.cls-2{fill:#fff;stroke:#fff;stroke-miterlimit:10;stroke-width:0.5px;}</style></defs><title>statement-icon-2</title><circle class="cls-1" cx="60.5" cy="60.5" r="60.5"/><path class="cls-2" d="M33.339,111.526a1.768,1.768,0,0,1-1.01-.32,1.712,1.712,0,0,1-.838-1.655l1.58-19.512A7.664,7.664,0,0,1,33.7,87.58a0.826,0.826,0,0,1,.1-0.288l0.086-.14L71.3,25.892a0.816,0.816,0,0,1,1.12-.272L90.253,36.5a0.815,0.815,0,0,1,.271,1.121L53.03,99.026a0.812,0.812,0,0,1-.228.243,7.538,7.538,0,0,1-1.895,1.663L34.264,111.255A1.7,1.7,0,0,1,33.339,111.526Zm2.09-23.766a0.787,0.787,0,0,1-.034.072,6.017,6.017,0,0,0-.7,2.341l-1.58,19.52a0.12,0.12,0,0,0,.068.126l0.156,0.076a0.081,0.081,0,0,0,.048-0.017L50.049,99.544a5.942,5.942,0,0,0,1.771-1.681,0.579,0.579,0,0,1,.044-0.058L88.706,37.469,72.27,27.438Z" transform="translate(-4.5 -4.5)"/><path class="cls-2" d="M92.965,32.775a0.811,0.811,0,0,1-.424-0.119L74.818,21.834a0.814,0.814,0,0,1-.271-1.121l3.388-5.553A6.191,6.191,0,0,1,86.464,13.1L95,18.3a6.229,6.229,0,0,1,2.059,8.532l-3.4,5.553A0.817,0.817,0,0,1,92.965,32.775Zm-16.6-11.908L92.7,30.838l2.971-4.858a4.593,4.593,0,0,0-1.519-6.289l-8.535-5.2a4.56,4.56,0,0,0-6.286,1.521Z" transform="translate(-4.5 -4.5)"/><path class="cls-2" d="M89.827,38.014a0.815,0.815,0,0,1-.425-0.119L71.587,27.013a0.815,0.815,0,0,1-.271-1.121L74.5,20.676a0.814,0.814,0,0,1,1.121-.272L93.442,31.286a0.816,0.816,0,0,1,.27,1.123l-3.188,5.214a0.815,0.815,0,0,1-.5.368A0.826,0.826,0,0,1,89.827,38.014ZM73.134,26.046l16.421,10.03,2.339-3.824L75.465,22.222Z" transform="translate(-4.5 -4.5)"/><path class="cls-2" d="M42.991,105.956a0.812,0.812,0,0,1-.424-0.119L32.538,99.713a0.816,0.816,0,0,1,.851-1.392l10.029,6.124A0.816,0.816,0,0,1,42.991,105.956Z" transform="translate(-4.5 -4.5)"/><path class="cls-2" d="M51.892,99.689a0.815,0.815,0,0,1-.424-0.12L34.058,88.945a0.816,0.816,0,0,1,.851-1.392l17.41,10.625A0.816,0.816,0,0,1,51.892,99.689Z" transform="translate(-4.5 -4.5)"/><path class="cls-2" d="M38.711,91.645a0.816,0.816,0,0,1-.695-1.241l37.753-61.79a0.816,0.816,0,0,1,1.392.851L39.408,91.255A0.814,0.814,0,0,1,38.711,91.645Z" transform="translate(-4.5 -4.5)"/><path class="cls-2" d="M98.894,111.352h-66.1a0.816,0.816,0,1,1,0-1.632h66.1A0.816,0.816,0,1,1,98.894,111.352Z" transform="translate(-4.5 -4.5)"/></svg>