<svg id="Layer_1" data-name="Layer 1" xmlns="http://www.w3.org/2000/svg" viewBox="0 0 121 121"><defs><style>.cls-1{fill:#4b5763;}.cls-2{fill:#fff;stroke:#fff;stroke-miterlimit:10;stroke-width:0.125px;}</style></defs><title>statement-icon-3</title><circle class="cls-1" cx="60.5" cy="60.5" r="60.5"/><path class="cls-2" d="M84.493,107.1a0.1,0.1,0,0,0-.029,0H45.536a0.931,0.931,0,0,1-.876-1.245l1.876-5.217a0.932,0.932,0,0,1,.876-0.616H82.571a0.931,0.931,0,0,1,.874.614l1.821,5.017A0.931,0.931,0,0,1,84.493,107.1Zm-37.634-1.862H83.137l-1.218-3.356H48.067Z" transform="translate(-4.5 -4.5)"/><path class="cls-2" d="M95.013,121.395H89.622a0.93,0.93,0,0,1-.875-0.615L77.939,90.854a0.931,0.931,0,0,1,.875-1.247h5.478a0.931,0.931,0,0,1,.876.616l10.722,29.927A0.93,0.93,0,0,1,95.013,121.395Zm-4.738-1.861h3.416L83.637,91.469h-3.5Z" transform="translate(-4.5 -4.5)"/><path class="cls-2" d="M40.376,121.395h-5.4a0.931,0.931,0,0,1-.876-1.245L44.833,90.224a0.931,0.931,0,0,1,.876-0.616h5.463a0.931,0.931,0,0,1,.875,1.247l-10.8,29.925A0.93,0.93,0,0,1,40.376,121.395Zm-4.082-1.861h3.428L49.848,91.469H46.364Z" transform="translate(-4.5 -4.5)"/><path class="cls-2" d="M109.319,91.469H20.681a8.654,8.654,0,0,1-8.748-8.746V27.969a0.93,0.93,0,0,1,.93-0.931H117.135a0.93,0.93,0,0,1,.93.931V82.708A8.562,8.562,0,0,1,109.319,91.469ZM13.793,28.9V82.723a6.735,6.735,0,0,0,6.888,6.885h88.638a6.741,6.741,0,0,0,6.886-6.9V28.9H13.793Z" transform="translate(-4.5 -4.5)"/><path class="cls-2" d="M120.705,28.9H9.295a0.93,0.93,0,0,1-.93-0.931V22.753a0.93,0.93,0,0,1,.93-0.931H120.705a0.93,0.93,0,0,1,.93.931v5.216A0.93,0.93,0,0,1,120.705,28.9ZM10.225,27.039H119.775V23.684H10.225v3.354Z" transform="translate(-4.5 -4.5)"/><path class="cls-2" d="M67.6,23.684H62.384a0.93,0.93,0,0,1-.93-0.931V20.139a3.539,3.539,0,0,1,7.078,0v2.615A0.93,0.93,0,0,1,67.6,23.684Zm-4.288-1.861h3.358V20.139a1.679,1.679,0,0,0-3.358,0v1.684Z" transform="translate(-4.5 -4.5)"/><path class="cls-2" d="M116.789,82.857h-0.007l-1.877-.014a2.812,2.812,0,0,1-2.788-2.824l0.022-3.038a21.21,21.21,0,0,1-5.657-2.249l-2.06,2.035a2.817,2.817,0,0,1-3.975-.022l-3.667-3.7A2.834,2.834,0,0,1,96.8,69.06l1.942-1.911a21.287,21.287,0,0,1-2.431-5.811l-2.646-.011A2.818,2.818,0,0,1,90.86,58.5L90.9,53.278a2.81,2.81,0,0,1,2.823-2.787l2.653,0.014a21,21,0,0,1,2.5-5.78L96.968,42.8a2.8,2.8,0,0,1-.809-2.008,2.768,2.768,0,0,1,.833-1.967l3.71-3.667a2.816,2.816,0,0,1,3.978.022l2.035,2.07a21.317,21.317,0,0,1,5.68-2.187l0.012-3.022a2.849,2.849,0,0,1,2.836-2.805l1.875,0.018a0.931,0.931,0,0,1-.009,1.862H117.1l-1.866-.018a0.976,0.976,0,0,0-.966.96l-0.015,3.765a0.93,0.93,0,0,1-.757.91,19.5,19.5,0,0,0-6.457,2.481,0.93,0.93,0,0,1-1.144-.144l-2.542-2.585a0.966,0.966,0,0,0-1.346,0L98.3,40.151a0.924,0.924,0,0,0-.277.658,0.951,0.951,0,0,0,.272.682l2.44,2.456a0.93,0.93,0,0,1,.111,1.177,19.2,19.2,0,0,0-2.827,6.523,0.931,0.931,0,0,1-.907.724h0l-3.381-.017a0.948,0.948,0,0,0-.958.934L92.72,58.513a0.966,0.966,0,0,0,.949.953l3.385,0.015a0.932,0.932,0,0,1,.906.737,19.465,19.465,0,0,0,2.746,6.564,0.931,0.931,0,0,1-.128,1.171l-2.471,2.43a0.966,0.966,0,0,0,0,1.354l3.667,3.7a0.954,0.954,0,0,0,1.347,0l2.571-2.539a0.928,0.928,0,0,1,1.145-.127,19.393,19.393,0,0,0,6.426,2.549,0.929,0.929,0,0,1,.746.918l-0.027,3.785a0.96,0.96,0,0,0,.934.956L116.8,81A0.931,0.931,0,0,1,116.789,82.857Z" transform="translate(-4.5 -4.5)"/><path class="cls-2" d="M116.963,67.4l-0.07,0a11.362,11.362,0,0,1,.141-22.68,0.93,0.93,0,1,1,.114,1.856,9.5,9.5,0,0,0-.117,18.968A0.931,0.931,0,0,1,116.963,67.4Z" transform="translate(-4.5 -4.5)"/><path class="cls-2" d="M71.445,84.144a13.675,13.675,0,1,1,0-27.351,0.93,0.93,0,0,1,.93.931V69.537h11.8a0.93,0.93,0,0,1,.93.931A13.684,13.684,0,0,1,71.445,84.144ZM70.515,58.69A11.814,11.814,0,1,0,83.209,71.4H71.445a0.93,0.93,0,0,1-.93-0.931V58.69Z" transform="translate(-4.5 -4.5)"/><path class="cls-2" d="M86.3,69.274H73.569a0.93,0.93,0,0,1-.93-0.931V55.6a0.93,0.93,0,0,1,.93-0.931A13.684,13.684,0,0,1,87.229,68.343,0.93,0.93,0,0,1,86.3,69.274ZM74.5,67.412H85.333A11.825,11.825,0,0,0,74.5,56.566V67.412Z" transform="translate(-4.5 -4.5)"/><path class="cls-2" d="M86.025,84.129H22.878a0.931,0.931,0,0,1,0-1.862H86.025A0.931,0.931,0,0,1,86.025,84.129Z" transform="translate(-4.5 -4.5)"/></svg>