<svg id="Layer_1" data-name="Layer 1" xmlns="http://www.w3.org/2000/svg" viewBox="0 0 121 121"><defs><style>.cls-1{fill:#4b5763;}.cls-2,.cls-3{fill:none;stroke:#fff;stroke-width:1.75px;}.cls-2{stroke-linecap:round;stroke-linejoin:round;}.cls-3{stroke-miterlimit:10;}</style></defs><title>statement-icon-4</title><circle class="cls-1" cx="60.5" cy="60.5" r="60.5"/><path class="cls-2" d="M89.217,53.987v-15.5h1.257a1.892,1.892,0,0,1,1.887,1.872v3.382a20.841,20.841,0,0,1,6.853,2.913l2.432-2.446a1.909,1.909,0,0,1,2.662,0L108,47.894a1.909,1.909,0,0,1,0,2.659l-2.567,2.552a20.6,20.6,0,0,1,2.634,6.736h3.765a1.9,1.9,0,0,1,1.9,1.9v5.187a1.9,1.9,0,0,1-1.9,1.9h-4a20.59,20.59,0,0,1-2.793,6.348L108,78.109a1.909,1.909,0,0,1,0,2.659l-3.689,3.689a1.9,1.9,0,0,1-2.662,0L98.587,81.4a20.515,20.515,0,0,1-6.225,2.512v4.4a1.891,1.891,0,0,1-1.887,1.871H89.217v-15.5A10.433,10.433,0,0,0,89.217,53.987Z" transform="translate(-4.5 -4.5)"/><path class="cls-2" d="M89.217,74.675V53.987A10.433,10.433,0,0,1,89.217,74.675Z" transform="translate(-4.5 -4.5)"/><path class="cls-2" d="M87.869,53.9a9.038,9.038,0,0,1,1.348.092V74.675a8.7,8.7,0,0,1-1.348.093A10.437,10.437,0,1,1,87.869,53.9Z" transform="translate(-4.5 -4.5)"/><path class="cls-2" d="M85.264,38.484h3.954v15.5a9.038,9.038,0,0,0-1.348-.092,10.437,10.437,0,1,0,0,20.874,8.7,8.7,0,0,0,1.348-.093v15.5H85.264a1.878,1.878,0,0,1-1.873-1.871v-4.4A20.453,20.453,0,0,1,77.152,81.4l-3.061,3.059a1.9,1.9,0,0,1-2.66,0l-3.686-3.689a1.9,1.9,0,0,1,0-2.659L70.7,75.17A20.217,20.217,0,0,1,67.9,68.821h-4.01a1.888,1.888,0,0,1-1.872-1.9V61.737a1.89,1.89,0,0,1,1.872-1.9h3.78a20.775,20.775,0,0,1,2.634-6.736l-2.564-2.552a1.9,1.9,0,0,1,0-2.659L71.43,44.2a1.908,1.908,0,0,1,2.66,0l2.446,2.446a20.464,20.464,0,0,1,6.853-2.913V40.356A1.88,1.88,0,0,1,85.264,38.484Z" transform="translate(-4.5 -4.5)"/><path class="cls-3" d="M89.217,111a7.124,7.124,0,0,1-7.269,7.258H57.022v-6.094a2.425,2.425,0,0,0,0-4.85l-0.013-3.757,32.208-.1V111Z" transform="translate(-4.5 -4.5)"/><path class="cls-2" d="M57.022,107.313a2.425,2.425,0,1,1-2.432,2.432A2.441,2.441,0,0,1,57.022,107.313Z" transform="translate(-4.5 -4.5)"/><path class="cls-2" d="M26.27,25.24H89.217V38.484H85.264a1.88,1.88,0,0,0-1.873,1.872v3.382a20.464,20.464,0,0,0-6.853,2.913L74.091,44.2a1.908,1.908,0,0,0-2.66,0l-3.686,3.69a1.9,1.9,0,0,0,0,2.659l2.564,2.552a20.775,20.775,0,0,0-2.634,6.736h-3.78a1.89,1.89,0,0,0-1.872,1.9v5.187a1.888,1.888,0,0,0,1.872,1.9H67.9A20.217,20.217,0,0,0,70.7,75.17l-2.953,2.94a1.9,1.9,0,0,0,0,2.659l3.686,3.689a1.9,1.9,0,0,0,2.66,0L77.152,81.4a20.453,20.453,0,0,0,6.238,2.512v4.4a1.878,1.878,0,0,0,1.873,1.871h3.954v13.274l-32.208.1-30.739.107V25.24Z" transform="translate(-4.5 -4.5)"/><path class="cls-3" d="M89.217,25.24H26.27V19a7.143,7.143,0,0,1,7.271-7.257H81.949A7.132,7.132,0,0,1,89.217,19v6.24Z" transform="translate(-4.5 -4.5)"/><path class="cls-3" d="M26.27,103.662l30.739-.107,0.013,3.757a2.425,2.425,0,1,0,0,4.85v6.094H33.542A7.135,7.135,0,0,1,26.27,111v-7.337Z" transform="translate(-4.5 -4.5)"/><path class="cls-2" d="M89.217,38.365V19a7.132,7.132,0,0,0-7.269-7.257H33.542A7.143,7.143,0,0,0,26.27,19v92a7.135,7.135,0,0,0,7.271,7.258H81.949A7.124,7.124,0,0,0,89.217,111V90.244" transform="translate(-4.5 -4.5)"/><path class="cls-2" d="M57.022,112.163a2.425,2.425,0,1,0-2.432-2.419A2.428,2.428,0,0,0,57.022,112.163Z" transform="translate(-4.5 -4.5)"/><line class="cls-2" x1="43.383" y1="14.5" x2="63.109" y2="14.5"/><line class="cls-2" x1="21.77" y1="20.74" x2="84.717" y2="20.74"/><polyline class="cls-2" points="21.77 99.162 52.509 99.055 84.717 98.951"/><path class="cls-2" d="M89.217,38.484h1.257a1.892,1.892,0,0,1,1.887,1.872v3.382a20.841,20.841,0,0,1,6.853,2.913l2.432-2.446a1.909,1.909,0,0,1,2.662,0L108,47.894a1.909,1.909,0,0,1,0,2.659l-2.567,2.552a20.6,20.6,0,0,1,2.634,6.736h3.765a1.9,1.9,0,0,1,1.9,1.9v5.187a1.9,1.9,0,0,1-1.9,1.9h-4a20.59,20.59,0,0,1-2.793,6.348L108,78.109a1.909,1.909,0,0,1,0,2.659l-3.689,3.689a1.9,1.9,0,0,1-2.662,0L98.587,81.4a20.515,20.515,0,0,1-6.225,2.512v4.4a1.891,1.891,0,0,1-1.887,1.871H85.264a1.878,1.878,0,0,1-1.873-1.871v-4.4A20.453,20.453,0,0,1,77.152,81.4l-3.061,3.059a1.9,1.9,0,0,1-2.66,0l-3.686-3.689a1.9,1.9,0,0,1,0-2.659L70.7,75.17A20.217,20.217,0,0,1,67.9,68.821h-4.01a1.888,1.888,0,0,1-1.872-1.9V61.737a1.89,1.89,0,0,1,1.872-1.9h3.78a20.775,20.775,0,0,1,2.634-6.736l-2.564-2.552a1.9,1.9,0,0,1,0-2.659L71.43,44.2a1.908,1.908,0,0,1,2.66,0l2.446,2.446a20.464,20.464,0,0,1,6.853-2.913V40.356a1.88,1.88,0,0,1,1.873-1.872h3.954Z" transform="translate(-4.5 -4.5)"/><path class="cls-2" d="M89.217,74.675a8.7,8.7,0,0,1-1.348.093,10.437,10.437,0,1,1,0-20.874,9.038,9.038,0,0,1,1.348.092A10.433,10.433,0,0,1,89.217,74.675Z" transform="translate(-4.5 -4.5)"/><line class="cls-2" x1="30.685" y1="60.754" x2="30.685" y2="82.472"/><line class="cls-2" x1="37.436" y1="69.4" x2="37.436" y2="82.472"/><line class="cls-2" x1="44.199" y1="64.255" x2="44.199" y2="82.472"/><line class="cls-2" x1="50.959" y1="73.864" x2="50.959" y2="82.472"/></svg>